<?xml version="1.0" encoding="UTF-8"?>
<svg version="1.1" xmlns="http://www.w3.org/2000/svg" width="192" height="192">
<path d="M0 0 C63.36 0 126.72 0 192 0 C192 63.36 192 126.72 192 192 C128.64 192 65.28 192 0 192 C0 128.64 0 65.28 0 0 Z " fill="#98ABB6" transform="translate(0,0)"/>
<path d="M0 0 C0.82131409 -0.00817749 1.64262817 -0.01635498 2.48883057 -0.02478027 C5.21349352 -0.04964274 7.93810435 -0.06615216 10.6628418 -0.08056641 C11.59253469 -0.08589008 12.52222759 -0.09121376 13.480093 -0.09669876 C18.40062003 -0.12343366 23.32112164 -0.14280773 28.24169922 -0.15722656 C33.3263159 -0.17387813 38.41028487 -0.21865907 43.49465656 -0.26959801 C47.40230563 -0.30323909 51.30980034 -0.31480052 55.2175808 -0.32045364 C57.09190002 -0.32717449 58.96620879 -0.34241819 60.84038734 -0.36634445 C63.46444244 -0.39793318 66.08674251 -0.39804268 68.7109375 -0.390625 C69.87147896 -0.415233 69.87147896 -0.415233 71.0554657 -0.44033813 C75.13572758 -0.3931437 76.83178934 0.01077569 80.00822449 2.6668396 C80.68186539 3.50042999 81.35550629 4.33402039 82.04956055 5.19287109 C82.54456055 5.68787109 82.54456055 5.68787109 83.04956055 6.19287109 C83.16073298 8.96609427 83.20695764 11.71464373 83.21069336 14.48876953 C83.21814072 15.7936734 83.21814072 15.7936734 83.22573853 17.12493896 C83.24040306 20.01738259 83.24717014 22.90977133 83.25268555 25.80224609 C83.25843458 27.80666099 83.26419234 29.81107587 83.2699585 31.81549072 C83.28048145 36.02559669 83.28631527 40.2356835 83.28979492 44.44580078 C83.29527473 49.84077722 83.31928638 55.23550064 83.34776688 60.6303978 C83.36639359 64.77395363 83.37159893 68.91744862 83.3731308 73.06104279 C83.37615905 75.04976023 83.38419336 77.03847656 83.39731598 79.02715302 C83.414373 81.81142868 83.41249676 84.5950878 83.40600586 87.37939453 C83.41522064 88.20141357 83.42443542 89.02343262 83.43392944 89.87036133 C83.40049825 94.4488027 83.10865904 97.54178995 80.04956055 101.19287109 C76.0188959 104.47064418 72.23932458 104.62323769 67.23339844 104.58105469 C66.46202042 104.58631165 65.6906424 104.5915686 64.89588928 104.59698486 C62.35445708 104.61015241 59.81365501 104.60145765 57.2722168 104.59130859 C55.50011577 104.59333047 53.72801555 104.59624286 51.95591736 104.6000061 C48.24461941 104.60442523 44.53353833 104.59801245 40.82226562 104.58398438 C36.07313522 104.56690519 31.32451394 104.57672816 26.57540226 104.59470177 C22.91646007 104.60556141 19.25763782 104.60208305 15.59869194 104.59431839 C13.84805681 104.59232176 12.09741068 104.59475674 10.34678841 104.60175705 C7.89593956 104.60940613 5.44590561 104.59771901 2.99511719 104.58105469 C2.27648499 104.58712738 1.55785278 104.59320007 0.81744385 104.59945679 C-4.74498333 104.52965795 -8.62780943 103.25462316 -12.80018616 99.55088806 C-14.55366485 95.95626023 -14.37576242 92.38010735 -14.35449219 88.46459961 C-14.36135544 87.58447205 -14.36821869 86.70434448 -14.37528992 85.79754639 C-14.39358805 82.8887925 -14.38971607 79.98057643 -14.3840332 77.07177734 C-14.38859363 75.04922815 -14.39389878 73.02668051 -14.3999176 71.00413513 C-14.40885468 66.76481838 -14.40641883 62.52568994 -14.39648438 58.28637695 C-14.38499525 52.85435923 -14.40520247 47.42299161 -14.43440151 41.9910593 C-14.45275013 37.81401949 -14.45247369 33.63713584 -14.44676399 29.46006584 C-14.44661061 27.45739772 -14.45266912 25.45471913 -14.46505547 23.45208931 C-14.47993788 20.65115745 -14.46930858 17.8514313 -14.45214844 15.05053711 C-14.46181641 14.22388046 -14.47148438 13.39722382 -14.48144531 12.54551697 C-14.43038224 8.56406124 -14.23786397 6.64384473 -12.04408264 3.20176697 C-8.29963395 -0.39111245 -4.94212874 0.02699937 0 0 Z " fill="#E0E3E4" transform="translate(59.950439453125,34.80712890625)"/>
<path d="M0 0 C0.85980469 0.09925781 1.71960938 0.19851562 2.60546875 0.30078125 C4.8125 0.6875 4.8125 0.6875 6.8125 1.6875 C8.68306791 1.9150015 10.55935958 2.09712811 12.4375 2.25 C13.44039062 2.33378906 14.44328125 2.41757813 15.4765625 2.50390625 C16.24742188 2.56449219 17.01828125 2.62507813 17.8125 2.6875 C18.31125913 14.63001033 18.47740601 24.20416883 10.625 33.9375 C6.86692174 37.95700979 2.51416956 40.8728951 -2.1875 43.6875 C0.80032482 43.07969838 2.06061798 42.50554682 4.625 40.625 C8.34433943 38.36422505 10.53832402 38.34556592 14.8125 38.6875 C14.8125 37.6975 14.8125 36.7075 14.8125 35.6875 C13.8225 35.1925 13.8225 35.1925 12.8125 34.6875 C13.3075 33.6975 13.3075 33.6975 13.8125 32.6875 C15.1325 32.6875 16.4525 32.6875 17.8125 32.6875 C17.8125 30.3775 17.8125 28.0675 17.8125 25.6875 C20.7825 25.6875 23.7525 25.6875 26.8125 25.6875 C26.8125 23.3775 26.8125 21.0675 26.8125 18.6875 C25.8225 18.6875 24.8325 18.6875 23.8125 18.6875 C23.8125 17.6975 23.8125 16.7075 23.8125 15.6875 C24.8025 15.6875 25.7925 15.6875 26.8125 15.6875 C26.8125 13.3775 26.8125 11.0675 26.8125 8.6875 C25.8225 8.6875 24.8325 8.6875 23.8125 8.6875 C23.8125 10.6675 23.8125 12.6475 23.8125 14.6875 C22.8225 15.0175 21.8325 15.3475 20.8125 15.6875 C20.8125 12.3875 20.8125 9.0875 20.8125 5.6875 C22.7925 5.6875 24.7725 5.6875 26.8125 5.6875 C26.8125 4.6975 26.8125 3.7075 26.8125 2.6875 C27.8025 2.6875 28.7925 2.6875 29.8125 2.6875 C29.8125 5.9875 29.8125 9.2875 29.8125 12.6875 C31.1325 12.6875 32.4525 12.6875 33.8125 12.6875 C33.8125 13.3475 33.8125 14.0075 33.8125 14.6875 C34.4725 14.6875 35.1325 14.6875 35.8125 14.6875 C35.8125 14.0275 35.8125 13.3675 35.8125 12.6875 C36.8025 12.6875 37.7925 12.6875 38.8125 12.6875 C38.8125 13.6775 38.8125 14.6675 38.8125 15.6875 C38.1525 15.6875 37.4925 15.6875 36.8125 15.6875 C36.8125 16.6775 36.8125 17.6675 36.8125 18.6875 C37.4725 18.6875 38.1325 18.6875 38.8125 18.6875 C38.8125 20.9975 38.8125 23.3075 38.8125 25.6875 C38.1525 25.6875 37.4925 25.6875 36.8125 25.6875 C36.8125 26.6775 36.8125 27.6675 36.8125 28.6875 C37.4725 28.6875 38.1325 28.6875 38.8125 28.6875 C38.8125 29.6775 38.8125 30.6675 38.8125 31.6875 C37.8225 31.6875 36.8325 31.6875 35.8125 31.6875 C35.8125 31.0275 35.8125 30.3675 35.8125 29.6875 C34.1625 29.6875 32.5125 29.6875 30.8125 29.6875 C30.8125 30.3475 30.8125 31.0075 30.8125 31.6875 C31.4725 31.6875 32.1325 31.6875 32.8125 31.6875 C32.8125 33.0075 32.8125 34.3275 32.8125 35.6875 C29.8425 35.6875 26.8725 35.6875 23.8125 35.6875 C23.8125 36.6775 23.8125 37.6675 23.8125 38.6875 C24.8025 38.6875 25.7925 38.6875 26.8125 38.6875 C26.8125 39.6775 26.8125 40.6675 26.8125 41.6875 C27.8025 41.6875 28.7925 41.6875 29.8125 41.6875 C29.8125 40.6975 29.8125 39.7075 29.8125 38.6875 C30.8025 38.6875 31.7925 38.6875 32.8125 38.6875 C32.8125 40.0075 32.8125 41.3275 32.8125 42.6875 C33.8025 42.6875 34.7925 42.6875 35.8125 42.6875 C35.8125 43.6775 35.8125 44.6675 35.8125 45.6875 C36.8025 45.6875 37.7925 45.6875 38.8125 45.6875 C38.8125 46.6775 38.8125 47.6675 38.8125 48.6875 C37.8225 48.6875 36.8325 48.6875 35.8125 48.6875 C35.8125 49.6775 35.8125 50.6675 35.8125 51.6875 C34.8225 52.1825 34.8225 52.1825 33.8125 52.6875 C33.8125 53.3475 33.8125 54.0075 33.8125 54.6875 C35.4625 55.0175 37.1125 55.3475 38.8125 55.6875 C38.8125 56.6775 38.8125 57.6675 38.8125 58.6875 C35.8425 58.6875 32.8725 58.6875 29.8125 58.6875 C29.8125 60.0075 29.8125 61.3275 29.8125 62.6875 C30.8025 62.6875 31.7925 62.6875 32.8125 62.6875 C32.8125 63.6775 32.8125 64.6675 32.8125 65.6875 C30.8325 65.6875 28.8525 65.6875 26.8125 65.6875 C26.8125 64.6975 26.8125 63.7075 26.8125 62.6875 C25.8225 62.6875 24.8325 62.6875 23.8125 62.6875 C23.8125 60.3775 23.8125 58.0675 23.8125 55.6875 C22.8225 55.6875 21.8325 55.6875 20.8125 55.6875 C20.8125 56.6775 20.8125 57.6675 20.8125 58.6875 C18.8325 58.6875 16.8525 58.6875 14.8125 58.6875 C14.8125 59.6775 14.8125 60.6675 14.8125 61.6875 C12.8325 61.6875 10.8525 61.6875 8.8125 61.6875 C8.8125 60.6975 8.8125 59.7075 8.8125 58.6875 C9.8025 58.6875 10.7925 58.6875 11.8125 58.6875 C11.8125 57.6975 11.8125 56.7075 11.8125 55.6875 C9.8325 55.6875 7.8525 55.6875 5.8125 55.6875 C5.8125 56.6775 5.8125 57.6675 5.8125 58.6875 C4.4925 58.6875 3.1725 58.6875 1.8125 58.6875 C1.8125 59.6775 1.8125 60.6675 1.8125 61.6875 C1.1525 61.6875 0.4925 61.6875 -0.1875 61.6875 C-0.5175 61.0275 -0.8475 60.3675 -1.1875 59.6875 C-2.1775 59.3575 -3.1675 59.0275 -4.1875 58.6875 C-4.1875 60.9975 -4.1875 63.3075 -4.1875 65.6875 C-6.4975 65.6875 -8.8075 65.6875 -11.1875 65.6875 C-11.1875 64.6975 -11.1875 63.7075 -11.1875 62.6875 C-12.1775 62.6875 -13.1675 62.6875 -14.1875 62.6875 C-14.1875 63.6775 -14.1875 64.6675 -14.1875 65.6875 C-15.1775 65.6875 -16.1675 65.6875 -17.1875 65.6875 C-17.1875 64.6975 -17.1875 63.7075 -17.1875 62.6875 C-18.6725 62.1925 -18.6725 62.1925 -20.1875 61.6875 C-20.1875 59.7075 -20.1875 57.7275 -20.1875 55.6875 C-19.1975 55.6875 -18.2075 55.6875 -17.1875 55.6875 C-17.1875 56.6775 -17.1875 57.6675 -17.1875 58.6875 C-15.2075 58.6875 -13.2275 58.6875 -11.1875 58.6875 C-11.1875 57.6975 -11.1875 56.7075 -11.1875 55.6875 C-12.1775 55.3575 -13.1675 55.0275 -14.1875 54.6875 C-14.1875 54.0275 -14.1875 53.3675 -14.1875 52.6875 C-16.8275 52.6875 -19.4675 52.6875 -22.1875 52.6875 C-22.5175 51.3675 -22.8475 50.0475 -23.1875 48.6875 C-21.2075 48.6875 -19.2275 48.6875 -17.1875 48.6875 C-17.1875 47.6975 -17.1875 46.7075 -17.1875 45.6875 C-19.1675 45.6875 -21.1475 45.6875 -23.1875 45.6875 C-23.1875 44.3675 -23.1875 43.0475 -23.1875 41.6875 C-27.8075 41.6875 -32.4275 41.6875 -37.1875 41.6875 C-37.1875 41.0275 -37.1875 40.3675 -37.1875 39.6875 C-37.8475 39.6875 -38.5075 39.6875 -39.1875 39.6875 C-39.5175 40.6775 -39.8475 41.6675 -40.1875 42.6875 C-42.1675 42.6875 -44.1475 42.6875 -46.1875 42.6875 C-46.1875 41.3675 -46.1875 40.0475 -46.1875 38.6875 C-44.2075 38.6875 -42.2275 38.6875 -40.1875 38.6875 C-40.1875 35.3875 -40.1875 32.0875 -40.1875 28.6875 C-42.1675 28.6875 -44.1475 28.6875 -46.1875 28.6875 C-46.1875 26.3775 -46.1875 24.0675 -46.1875 21.6875 C-45.1975 21.6875 -44.2075 21.6875 -43.1875 21.6875 C-43.1875 19.7075 -43.1875 17.7275 -43.1875 15.6875 C-42.1975 15.3575 -41.2075 15.0275 -40.1875 14.6875 C-40.1875 14.0275 -40.1875 13.3675 -40.1875 12.6875 C-38.8675 12.6875 -37.5475 12.6875 -36.1875 12.6875 C-36.1875 13.6775 -36.1875 14.6675 -36.1875 15.6875 C-37.1775 15.6875 -38.1675 15.6875 -39.1875 15.6875 C-39.1875 17.6675 -39.1875 19.6475 -39.1875 21.6875 C-40.1775 22.0175 -41.1675 22.3475 -42.1875 22.6875 C-42.1875 23.3475 -42.1875 24.0075 -42.1875 24.6875 C-40.5375 24.6875 -38.8875 24.6875 -37.1875 24.6875 C-37.1875 22.7075 -37.1875 20.7275 -37.1875 18.6875 C-35.8675 18.6875 -34.5475 18.6875 -33.1875 18.6875 C-33.1875 19.6775 -33.1875 20.6675 -33.1875 21.6875 C-29.8875 21.6875 -26.5875 21.6875 -23.1875 21.6875 C-22.8575 20.6975 -22.5275 19.7075 -22.1875 18.6875 C-22.1875 20.9975 -22.1875 23.3075 -22.1875 25.6875 C-26.8075 25.6875 -31.4275 25.6875 -36.1875 25.6875 C-36.1875 27.9975 -36.1875 30.3075 -36.1875 32.6875 C-35.1975 32.6875 -34.2075 32.6875 -33.1875 32.6875 C-33.1875 34.6675 -33.1875 36.6475 -33.1875 38.6875 C-29.8875 38.6875 -26.5875 38.6875 -23.1875 38.6875 C-23.1875 37.6975 -23.1875 36.7075 -23.1875 35.6875 C-25.1675 35.6875 -27.1475 35.6875 -29.1875 35.6875 C-29.1875 33.3775 -29.1875 31.0675 -29.1875 28.6875 C-28.1975 28.6875 -27.2075 28.6875 -26.1875 28.6875 C-26.1875 30.0075 -26.1875 31.3275 -26.1875 32.6875 C-25.1975 32.6875 -24.2075 32.6875 -23.1875 32.6875 C-23.1875 33.3475 -23.1875 34.0075 -23.1875 34.6875 C-20.5475 34.6875 -17.9075 34.6875 -15.1875 34.6875 C-15.620625 33.718125 -16.05375 32.74875 -16.5 31.75 C-20.73091371 21.75468634 -21.96302145 13.48735421 -21.1875 2.6875 C-20.45144531 2.63851562 -19.71539062 2.58953125 -18.95703125 2.5390625 C-17.98121094 2.46429688 -17.00539063 2.38953125 -16 2.3125 C-15.03707031 2.24289063 -14.07414062 2.17328125 -13.08203125 2.1015625 C-10.18344141 1.81010886 -10.18344141 1.81010886 -7.6484375 0.62890625 C-4.79539855 -0.46249437 -3.01020533 -0.37798342 0 0 Z " fill="#254059" transform="translate(98.1875,67.3125)"/>
<path d="M0 0 C1.28970703 0.14888672 1.28970703 0.14888672 2.60546875 0.30078125 C4.8125 0.6875 4.8125 0.6875 6.8125 1.6875 C8.68306791 1.9150015 10.55935958 2.09712811 12.4375 2.25 C13.44039062 2.33378906 14.44328125 2.41757813 15.4765625 2.50390625 C16.24742188 2.56449219 17.01828125 2.62507813 17.8125 2.6875 C18.31125913 14.63001033 18.47740601 24.20416883 10.625 33.9375 C6.95087201 37.81706311 2.77414493 41.59238845 -2.1875 43.6875 C-4.9609375 43.33984375 -4.9609375 43.33984375 -7.1875 42.6875 C-7.1875 43.6775 -7.1875 44.6675 -7.1875 45.6875 C-8.1775 45.6875 -9.1675 45.6875 -10.1875 45.6875 C-10.084375 44.945 -9.98125 44.2025 -9.875 43.4375 C-9.92195498 40.52810746 -9.92195498 40.52810746 -12.25 38.5625 C-15.8439163 36.26851087 -18.26623926 36.09577143 -22.5 35.9375 C-24.38138672 35.85242188 -24.38138672 35.85242188 -26.30078125 35.765625 C-27.25339844 35.73984375 -28.20601563 35.7140625 -29.1875 35.6875 C-29.1875 33.3775 -29.1875 31.0675 -29.1875 28.6875 C-28.1975 28.6875 -27.2075 28.6875 -26.1875 28.6875 C-26.1875 30.0075 -26.1875 31.3275 -26.1875 32.6875 C-25.1975 32.6875 -24.2075 32.6875 -23.1875 32.6875 C-23.1875 33.3475 -23.1875 34.0075 -23.1875 34.6875 C-20.5475 34.6875 -17.9075 34.6875 -15.1875 34.6875 C-15.620625 33.718125 -16.05375 32.74875 -16.5 31.75 C-20.73091371 21.75468634 -21.96302145 13.48735421 -21.1875 2.6875 C-20.45144531 2.63851562 -19.71539062 2.58953125 -18.95703125 2.5390625 C-17.98121094 2.46429688 -17.00539063 2.38953125 -16 2.3125 C-15.03707031 2.24289063 -14.07414062 2.17328125 -13.08203125 2.1015625 C-10.18344141 1.81010886 -10.18344141 1.81010886 -7.6484375 0.62890625 C-4.79539855 -0.46249437 -3.01020533 -0.37798342 0 0 Z " fill="#33809F" transform="translate(98.1875,67.3125)"/>
<path d="M0 0 C0.83853516 0.00064453 1.67707031 0.00128906 2.54101562 0.00195312 C3.8490918 0.02612305 3.8490918 0.02612305 5.18359375 0.05078125 C6.05951172 0.04755859 6.93542969 0.04433594 7.83789062 0.04101562 C14.35400694 0.09619444 14.35400694 0.09619444 16.62109375 2.36328125 C16.87988281 4.48632812 16.87988281 4.48632812 16.88671875 7.08203125 C16.89058594 8.48001953 16.89058594 8.48001953 16.89453125 9.90625 C16.88679688 10.88207031 16.8790625 11.85789062 16.87109375 12.86328125 C16.87882812 13.83910156 16.8865625 14.81492187 16.89453125 15.8203125 C16.89195312 16.75230469 16.889375 17.68429688 16.88671875 18.64453125 C16.88446289 19.50111328 16.88220703 20.35769531 16.87988281 21.24023438 C16.62109375 23.36328125 16.62109375 23.36328125 14.62109375 25.36328125 C12.58984375 25.62207031 12.58984375 25.62207031 10.12109375 25.62890625 C9.23421875 25.63148437 8.34734375 25.6340625 7.43359375 25.63671875 C6.50546875 25.62898438 5.57734375 25.62125 4.62109375 25.61328125 C3.22890625 25.62488281 3.22890625 25.62488281 1.80859375 25.63671875 C0.47828125 25.63285156 0.47828125 25.63285156 -0.87890625 25.62890625 C-1.69359375 25.62665039 -2.50828125 25.62439453 -3.34765625 25.62207031 C-5.37890625 25.36328125 -5.37890625 25.36328125 -7.37890625 23.36328125 C-7.82760286 20.07084521 -7.70298867 16.74530382 -7.69140625 13.42578125 C-7.70751953 12.50603516 -7.72363281 11.58628906 -7.74023438 10.63867188 C-7.74087891 9.75501953 -7.74152344 8.87136719 -7.7421875 7.9609375 C-7.74516846 7.15148682 -7.74814941 6.34203613 -7.7512207 5.50805664 C-6.95985963 0.94929793 -4.2966947 -0.01668707 0 0 Z " fill="#DDE0E1" transform="translate(117.37890625,40.63671875)"/>
<path d="M0 0 C1.2375 -0.01675781 2.475 -0.03351562 3.75 -0.05078125 C7 0.3125 7 0.3125 8.68041992 1.54785156 C10.36980053 3.80702696 10.3736007 5.10800782 10.36328125 7.91015625 C10.36263672 8.79380859 10.36199219 9.67746094 10.36132812 10.58789062 C10.34521484 11.50763672 10.32910156 12.42738281 10.3125 13.375 C10.31733398 14.76041992 10.31733398 14.76041992 10.32226562 16.17382812 C10.26705173 23.04544827 10.26705173 23.04544827 8 25.3125 C5.29077199 25.51102102 2.70696821 25.59089477 0 25.5625 C-0.73734375 25.57023437 -1.4746875 25.57796875 -2.234375 25.5859375 C-7.7466804 25.5658196 -7.7466804 25.5658196 -10 23.3125 C-10.45027679 19.83196051 -10.32407972 16.31883808 -10.3125 12.8125 C-10.33666992 11.34876953 -10.33666992 11.34876953 -10.36132812 9.85546875 C-10.36197266 8.92347656 -10.36261719 7.99148437 -10.36328125 7.03125 C-10.36626221 6.17466797 -10.36924316 5.31808594 -10.37231445 4.43554688 C-10.24945068 3.73494141 -10.12658691 3.03433594 -10 2.3125 C-6.33236683 -0.13258878 -4.36568225 0.01364276 0 0 Z " fill="#274059" transform="translate(62,40.6875)"/>
<path d="M0 0 C1.32 0 2.64 0 4 0 C4 0.99 4 1.98 4 3 C3.01 3 2.02 3 1 3 C1 4.98 1 6.96 1 9 C0.01 9.33 -0.98 9.66 -2 10 C-2 10.66 -2 11.32 -2 12 C-0.35 12 1.3 12 3 12 C3 10.02 3 8.04 3 6 C4.32 6 5.64 6 7 6 C7 6.99 7 7.98 7 9 C10.3 9 13.6 9 17 9 C17.33 8.01 17.66 7.02 18 6 C18 8.31 18 10.62 18 13 C13.38 13 8.76 13 4 13 C4 15.31 4 17.62 4 20 C4.99 20 5.98 20 7 20 C7 21.98 7 23.96 7 26 C10.3 26 13.6 26 17 26 C17 25.01 17 24.02 17 23 C23.98942918 22.397463 23.98942918 22.397463 26.8671875 24.11328125 C28.30861002 25.33745588 29.66278229 26.66278229 31 28 C30.505 30.475 30.505 30.475 30 33 C28.68 33 27.36 33 26 33 C26 34.98 26 36.96 26 39 C23.03 39 20.06 39 17 39 C17 38.01 17 37.02 17 36 C18.98 36 20.96 36 23 36 C23 35.01 23 34.02 23 33 C21.02 33 19.04 33 17 33 C17 31.68 17 30.36 17 29 C12.38 29 7.76 29 3 29 C3 28.34 3 27.68 3 27 C2.34 27 1.68 27 1 27 C0.67 27.99 0.34 28.98 0 30 C-1.98 30 -3.96 30 -6 30 C-6 28.68 -6 27.36 -6 26 C-4.02 26 -2.04 26 0 26 C0 22.7 0 19.4 0 16 C-1.98 16 -3.96 16 -6 16 C-6 13.69 -6 11.38 -6 9 C-5.01 9 -4.02 9 -3 9 C-3 7.02 -3 5.04 -3 3 C-2.01 2.67 -1.02 2.34 0 2 C0 1.34 0 0.68 0 0 Z " fill="#253F58" transform="translate(58,80)"/>
<path d="M0 0 C5.68099789 0.9212429 11.33935016 1.96254994 17 3 C17.4616808 12.95178616 17.24019905 21.57042537 10.5625 29.4375 C8.23386062 31.93284287 5.83773484 34.09458051 3 36 C2.34 36 1.68 36 1 36 C0.6498621 32.60236555 0.45596897 29.38268797 1 26 C2.98689731 24.64721885 4.98745218 23.31431695 7 22 C7.84237361 18.67288913 7.98693461 15.42313292 8 12 C5.69 12 3.38 12 1 12 C1 12.99 1 13.98 1 15 C1.99 15 2.98 15 4 15 C3.67 15.99 3.34 16.98 3 18 C2.01 18.33 1.02 18.66 0 19 C0 18.01 0 17.02 0 16 C-1.32 16 -2.64 16 -4 16 C-4 17.32 -4 18.64 -4 20 C-2.68 20 -1.36 20 0 20 C0 21.98 0 23.96 0 26 C-3.65316671 24.75023244 -4.78065836 24.32901247 -7 21 C-7.1953125 18.73828125 -7.1953125 18.73828125 -7.125 16.3125 C-7.10695313 15.50425781 -7.08890625 14.69601563 -7.0703125 13.86328125 C-7.04710938 13.24839844 -7.02390625 12.63351563 -7 12 C-4.69 12 -2.38 12 0 12 C0 8.04 0 4.08 0 0 Z " fill="#7EB56B" transform="translate(96,70)"/>
<path d="M0 0 C0.99 0 1.98 0 3 0 C3 3.3 3 6.6 3 10 C4.32 10 5.64 10 7 10 C7 10.66 7 11.32 7 12 C7.66 12 8.32 12 9 12 C9 11.34 9 10.68 9 10 C9.99 10 10.98 10 12 10 C12 10.99 12 11.98 12 13 C11.34 13 10.68 13 10 13 C10 13.99 10 14.98 10 16 C10.66 16 11.32 16 12 16 C12 18.31 12 20.62 12 23 C11.34 23 10.68 23 10 23 C10 23.99 10 24.98 10 26 C10.66 26 11.32 26 12 26 C12 26.99 12 27.98 12 29 C11.01 29 10.02 29 9 29 C9 28.34 9 27.68 9 27 C7.35 27 5.7 27 4 27 C4 27.66 4 28.32 4 29 C4.66 29 5.32 29 6 29 C6 30.32 6 31.64 6 33 C3.03 33 0.06 33 -3 33 C-3.33 33.99 -3.66 34.98 -4 36 C-4.66 36 -5.32 36 -6 36 C-6 35.01 -6 34.02 -6 33 C-6.99 33 -7.98 33 -9 33 C-9.33 33.99 -9.66 34.98 -10 36 C-10.66 36 -11.32 36 -12 36 C-12 35.01 -12 34.02 -12 33 C-12.66 32.67 -13.32 32.34 -14 32 C-13.67 31.34 -13.34 30.68 -13 30 C-11.68 30 -10.36 30 -9 30 C-9 27.69 -9 25.38 -9 23 C-6.03 23 -3.06 23 0 23 C0 20.69 0 18.38 0 16 C-0.99 16 -1.98 16 -3 16 C-3 15.01 -3 14.02 -3 13 C-2.01 13 -1.02 13 0 13 C0 10.69 0 8.38 0 6 C-0.99 6 -1.98 6 -3 6 C-3 7.98 -3 9.96 -3 12 C-3.99 12.33 -4.98 12.66 -6 13 C-6 9.7 -6 6.4 -6 3 C-4.02 3 -2.04 3 0 3 C0 2.01 0 1.02 0 0 Z " fill="#1B3752" transform="translate(125,70)"/>
<path d="M0 0 C0.74886475 0.00523682 1.49772949 0.01047363 2.26928711 0.01586914 C3.07817383 0.0190918 3.88706055 0.02231445 4.72045898 0.02563477 C5.5705957 0.03401367 6.42073242 0.04239258 7.29663086 0.05102539 C8.15063477 0.05553711 9.00463867 0.06004883 9.88452148 0.06469727 C12.00108749 0.07652166 14.11761771 0.0944577 16.23413086 0.11352539 C17.81390794 3.27307956 17.4186017 6.64816356 17.42163086 10.11352539 C17.43387695 10.85086914 17.44612305 11.58821289 17.45874023 12.34790039 C17.46400481 14.27122597 17.35616533 16.19406802 17.23413086 18.11352539 C14.67464087 20.67301538 12.96205891 20.3742127 9.46850586 20.38696289 C8.73116211 20.37922852 7.99381836 20.37149414 7.23413086 20.36352539 C6.49678711 20.37125977 5.75944336 20.37899414 4.99975586 20.38696289 C-0.51254954 20.36684499 -0.51254954 20.36684499 -2.76586914 18.11352539 C-2.93765966 15.22220362 -2.99816384 12.43910474 -2.95336914 9.55102539 C-2.95272461 8.75760742 -2.95208008 7.96418945 -2.95141602 7.14672852 C-2.89792001 0.18630344 -2.89792001 0.18630344 0 0 Z " fill="#243E58" transform="translate(54.765869140625,112.886474609375)"/>
<path d="M0 0 C1.28970703 0.14888672 1.28970703 0.14888672 2.60546875 0.30078125 C4.8125 0.6875 4.8125 0.6875 6.8125 1.6875 C8.68306791 1.9150015 10.55935958 2.09712811 12.4375 2.25 C13.44039062 2.33378906 14.44328125 2.41757813 15.4765625 2.50390625 C16.24742188 2.56449219 17.01828125 2.62507813 17.8125 2.6875 C18.31555237 14.73280949 18.44626477 24.27284498 10.5 34.0625 C7.28221234 37.50316473 4.02854582 39.62249797 -0.1875 41.6875 C1.0066069 36.76180905 3.97799854 34.65723382 7.83984375 31.7265625 C12.71060171 26.69183843 13.37667588 20.42357111 14 13.75 C14.08185547 12.97076172 14.16371094 12.19152344 14.24804688 11.38867188 C14.44614171 9.48929203 14.63073841 7.58851238 14.8125 5.6875 C12.90597656 5.72037109 12.90597656 5.72037109 10.9609375 5.75390625 C8.2683259 5.80033059 6.93727738 5.74332146 4.4375 4.625 C0.26427231 3.13456154 -3.87825991 3.93242961 -8.1875 4.6875 C-9.1775 5.1825 -9.1775 5.1825 -10.1875 5.6875 C-12.8598621 5.82165472 -15.51000488 5.73068541 -18.1875 5.6875 C-16.98470353 21.74891115 -16.98470353 21.74891115 -8.125 34.625 C-5.87030055 36.45559091 -3.60829124 38.07363917 -1.1875 39.6875 C-1.1875 40.3475 -1.1875 41.0075 -1.1875 41.6875 C-8.13283807 40.75742864 -12.25023353 36.09599345 -16.5 30.8125 C-21.55585647 21.44980284 -21.53237478 13.09760908 -21.1875 2.6875 C-20.45144531 2.63851562 -19.71539062 2.58953125 -18.95703125 2.5390625 C-17.98121094 2.46429688 -17.00539063 2.38953125 -16 2.3125 C-15.03707031 2.24289063 -14.07414062 2.17328125 -13.08203125 2.1015625 C-10.18344141 1.81010886 -10.18344141 1.81010886 -7.6484375 0.62890625 C-4.79539855 -0.46249437 -3.01020533 -0.37798342 0 0 Z " fill="#22455E" transform="translate(98.1875,67.3125)"/>
<path d="M0 0 C0.99 0 1.98 0 3 0 C3 0.99 3 1.98 3 3 C3.99 3 4.98 3 6 3 C6 3.99 6 4.98 6 6 C4.02 6 2.04 6 0 6 C0 6.99 0 7.98 0 9 C2.97 9 5.94 9 9 9 C9 8.01 9 7.02 9 6 C11.31 6 13.62 6 16 6 C16 9.96 16 13.92 16 18 C15.01 18 14.02 18 13 18 C13 15.36 13 12.72 13 10 C12.01 10 11.02 10 10 10 C10 11.98 10 13.96 10 16 C8.68 15.67 7.36 15.34 6 15 C6 14.34 6 13.68 6 13 C5.01 13 4.02 13 3 13 C3 13.99 3 14.98 3 16 C0.09399739 17.25664978 -1.79604584 18 -5 18 C-5 17.34 -5 16.68 -5 16 C-3.35 16 -1.7 16 0 16 C0 15.01 0 14.02 0 13 C-0.99 13 -1.98 13 -3 13 C-3 11.68 -3 10.36 -3 9 C-3.99 9 -4.98 9 -6 9 C-6 11.31 -6 13.62 -6 16 C-7.32 16 -8.64 16 -10 16 C-10 15.01 -10 14.02 -10 13 C-10.99 13 -11.98 13 -13 13 C-13 14.32 -13 15.64 -13 17 C-13.99 17 -14.98 17 -16 17 C-16.04241723 14.66705225 -16.04092937 12.33297433 -16 10 C-15 9 -15 9 -12.4375 8.9375 C-11.633125 8.958125 -10.82875 8.97875 -10 9 C-10 8.01 -10 7.02 -10 6 C-11.98 6 -13.96 6 -16 6 C-16 5.01 -16 4.02 -16 3 C-12.7 3 -9.4 3 -6 3 C-6 3.99 -6 4.98 -6 6 C-5.01 6 -4.02 6 -3 6 C-3 5.01 -3 4.02 -3 3 C-2.01 3 -1.02 3 0 3 C0 2.01 0 1.02 0 0 Z " fill="#2B445D" transform="translate(91,49)"/>
<path d="M0 0 C0.83853516 0.00064453 1.67707031 0.00128906 2.54101562 0.00195312 C3.8490918 0.02612305 3.8490918 0.02612305 5.18359375 0.05078125 C6.05951172 0.04755859 6.93542969 0.04433594 7.83789062 0.04101562 C14.35400694 0.09619444 14.35400694 0.09619444 16.62109375 2.36328125 C16.87988281 4.48632812 16.87988281 4.48632812 16.88671875 7.08203125 C16.89058594 8.48001953 16.89058594 8.48001953 16.89453125 9.90625 C16.88679688 10.88207031 16.8790625 11.85789062 16.87109375 12.86328125 C16.87882812 13.83910156 16.8865625 14.81492187 16.89453125 15.8203125 C16.89195312 16.75230469 16.889375 17.68429688 16.88671875 18.64453125 C16.88446289 19.50111328 16.88220703 20.35769531 16.87988281 21.24023438 C16.62109375 23.36328125 16.62109375 23.36328125 14.62109375 25.36328125 C12.58984375 25.62207031 12.58984375 25.62207031 10.12109375 25.62890625 C9.23421875 25.63148437 8.34734375 25.6340625 7.43359375 25.63671875 C6.50546875 25.62898438 5.57734375 25.62125 4.62109375 25.61328125 C3.22890625 25.62488281 3.22890625 25.62488281 1.80859375 25.63671875 C0.47828125 25.63285156 0.47828125 25.63285156 -0.87890625 25.62890625 C-1.69359375 25.62665039 -2.50828125 25.62439453 -3.34765625 25.62207031 C-5.37890625 25.36328125 -5.37890625 25.36328125 -7.37890625 23.36328125 C-7.82760286 20.07084521 -7.70298867 16.74530382 -7.69140625 13.42578125 C-7.70751953 12.50603516 -7.72363281 11.58628906 -7.74023438 10.63867188 C-7.74087891 9.75501953 -7.74152344 8.87136719 -7.7421875 7.9609375 C-7.74516846 7.15148682 -7.74814941 6.34203613 -7.7512207 5.50805664 C-6.95985963 0.94929793 -4.2966947 -0.01668707 0 0 Z M-3.37890625 4.36328125 C-3.37890625 10.30328125 -3.37890625 16.24328125 -3.37890625 22.36328125 C-0.75953125 22.38390625 1.85984375 22.40453125 4.55859375 22.42578125 C5.79790649 22.43943726 5.79790649 22.43943726 7.06225586 22.45336914 C8.91543134 22.4605207 10.76858683 22.41356645 12.62109375 22.36328125 C14.06497946 21.14899137 14.06497946 21.14899137 13.71875 17.546875 C13.71300513 15.96481078 13.69998968 14.38277094 13.68359375 12.80078125 C13.66296875 10.01640625 13.64234375 7.23203125 13.62109375 4.36328125 C8.01109375 4.36328125 2.40109375 4.36328125 -3.37890625 4.36328125 Z " fill="#28435C" transform="translate(117.37890625,40.63671875)"/>
<path d="M0 0 C10.05859375 -0.09765625 10.05859375 -0.09765625 13 0 C14 1 14 1 14.09765625 4.59765625 C14.0909822 6.08596867 14.07902183 7.57426432 14.0625 9.0625 C14.05798828 9.82111328 14.05347656 10.57972656 14.04882812 11.36132812 C14.0370068 13.24091871 14.01907078 15.12046899 14 17 C9.38 17 4.76 17 0 17 C0 11.39 0 5.78 0 0 Z " fill="#D2D6D9" transform="translate(55,45)"/>
<path d="M0 0 C1.32 0 2.64 0 4 0 C4 1.98 4 3.96 4 6 C5.98 6 7.96 6 10 6 C10 10.62 10 15.24 10 20 C7.69 20 5.38 20 3 20 C3 19.01 3 18.02 3 17 C2.01 17 1.02 17 0 17 C0 17.99 0 18.98 0 20 C-0.99 20 -1.98 20 -3 20 C-3 19.01 -3 18.02 -3 17 C-3.99 16.67 -4.98 16.34 -6 16 C-6 14.02 -6 12.04 -6 10 C-5.01 10 -4.02 10 -3 10 C-3 10.99 -3 11.98 -3 13 C-1.02 13 0.96 13 3 13 C3 12.01 3 11.02 3 10 C2.01 9.67 1.02 9.34 0 9 C0 8.34 0 7.68 0 7 C-2.64 7 -5.28 7 -8 7 C-8 6.67 -8 6.34 -8 6 C-5.36 6 -2.72 6 0 6 C0 4.02 0 2.04 0 0 Z " fill="#9AA5AE" transform="translate(84,113)"/>
<path d="M0 0 C10.05859375 -0.09765625 10.05859375 -0.09765625 13 0 C14 1 14 1 14.1328125 3.6875 C14.13023438 4.780625 14.12765625 5.87375 14.125 7 C14.12757812 8.093125 14.13015625 9.18625 14.1328125 10.3125 C14 13 14 13 13 14 C8.66469082 14.14393457 4.33842269 14.04212061 0 14 C0 9.38 0 4.76 0 0 Z " fill="#D7DBDD" transform="translate(55,116)"/>
<path d="M0 0 C0.99 0 1.98 0 3 0 C3 3.3 3 6.6 3 10 C4.32 10 5.64 10 7 10 C7 10.66 7 11.32 7 12 C7.66 12 8.32 12 9 12 C9 11.34 9 10.68 9 10 C9.99 10 10.98 10 12 10 C12 10.99 12 11.98 12 13 C11.34 13 10.68 13 10 13 C10 13.99 10 14.98 10 16 C10.66 16 11.32 16 12 16 C12 18.31 12 20.62 12 23 C11.01 22.67 10.02 22.34 9 22 C9 21.01 9 20.02 9 19 C8.01 19 7.02 19 6 19 C6 18.01 6 17.02 6 16 C5.01 16.33 4.02 16.66 3 17 C1.78130071 19.50447516 1.78130071 19.50447516 1 22 C0.67 22 0.34 22 0 22 C0 20.02 0 18.04 0 16 C-0.99 16 -1.98 16 -3 16 C-3 15.01 -3 14.02 -3 13 C-2.01 13 -1.02 13 0 13 C0 10.69 0 8.38 0 6 C-0.99 6 -1.98 6 -3 6 C-3 7.98 -3 9.96 -3 12 C-3.99 12.33 -4.98 12.66 -6 13 C-6 9.7 -6 6.4 -6 3 C-4.02 3 -2.04 3 0 3 C0 2.01 0 1.02 0 0 Z " fill="#1E3A54" transform="translate(125,70)"/>
<path d="M0 0 C1.6396875 0.4640625 1.6396875 0.4640625 3.3125 0.9375 C8.48276323 2.2463099 13.69261392 2.62926347 19 3 C19.50305237 15.04530949 19.63376477 24.58534498 11.6875 34.375 C8.46971234 37.81566473 5.21604582 39.93499797 1 42 C2.1941069 37.07430905 5.16549854 34.96973382 9.02734375 32.0390625 C13.89810171 27.00433843 14.56417588 20.73607111 15.1875 14.0625 C15.26935547 13.28326172 15.35121094 12.50402344 15.43554688 11.70117188 C15.63364171 9.80179203 15.81823841 7.90101238 16 6 C14.783125 6.0309375 13.56625 6.061875 12.3125 6.09375 C8.92259937 6.09375 6.2003215 5.70012056 3 4.5 C2.236875 4.2215625 1.47375 3.943125 0.6875 3.65625 C0.130625 3.4396875 -0.42625 3.223125 -1 3 C-0.67 2.01 -0.34 1.02 0 0 Z " fill="#2A6A69" transform="translate(97,67)"/>
<path d="M0 0 C2.64 0 5.28 0 8 0 C7.3635973 9.22783918 3.67182428 13.69361733 -3.1953125 19.6796875 C-5 21 -5 21 -7 21 C-7.35022116 17.60155767 -7.54160439 14.38368685 -7 11 C-4.0625 8.8125 -4.0625 8.8125 -1 7 C-0.02649222 3.3634269 -0.02649222 3.3634269 0 0 Z " fill="#5DA15F" transform="translate(104,85)"/>
<path d="M0 0 C1.32 0 2.64 0 4 0 C4 0.99 4 1.98 4 3 C3.01 3 2.02 3 1 3 C1 4.98 1 6.96 1 9 C0.01 9.33 -0.98 9.66 -2 10 C-2 10.66 -2 11.32 -2 12 C-0.35 12 1.3 12 3 12 C3 10.02 3 8.04 3 6 C4.32 6 5.64 6 7 6 C7 6.99 7 7.98 7 9 C10.3 9 13.6 9 17 9 C17.33 8.01 17.66 7.02 18 6 C18 8.31 18 10.62 18 13 C13.38 13 8.76 13 4 13 C4 14.98 4 16.96 4 19 C3.67 19 3.34 19 3 19 C3 17.02 3 15.04 3 13 C1.02 13 -0.96 13 -3 13 C-3 9.7 -3 6.4 -3 3 C-2.01 2.67 -1.02 2.34 0 2 C0 1.34 0 0.68 0 0 Z " fill="#85919C" transform="translate(58,80)"/>
<path d="M0 0 C0.8146875 0.00257812 1.629375 0.00515625 2.46875 0.0078125 C3.2834375 0.00523438 4.098125 0.00265625 4.9375 0 C6.96875 0.1328125 6.96875 0.1328125 7.96875 1.1328125 C8.11132189 4.46899481 8.01103157 7.79256856 7.96875 11.1328125 C4.33875 11.1328125 0.70875 11.1328125 -3.03125 11.1328125 C-3.12890625 3.41796875 -3.12890625 3.41796875 -3.03125 1.1328125 C-2.03125 0.1328125 -2.03125 0.1328125 0 0 Z " fill="#2C465F" transform="translate(120.03125,47.8671875)"/>
<path d="M0 0 C0.33 0 0.66 0 1 0 C1 6.6 1 13.2 1 20 C-4.94 20 -10.88 20 -17 20 C-17 19.67 -17 19.34 -17 19 C-15.948125 18.7525 -14.89625 18.505 -13.8125 18.25 C-9.40487598 16.95259454 -6.33343373 15.14157539 -3.83984375 11.13671875 C-1.93063418 7.50306183 -0.51395312 4.11162494 0 0 Z " fill="#F2F4F4" transform="translate(191,172)"/>
<path d="M0 0 C5.61 0 11.22 0 17 0 C17 5.61 17 11.22 17 17 C15 15 15 15 13.75 11.6875 C12.06005331 7.61124668 9.65474141 5.50815587 6 3 C2.78734084 1.67649342 2.78734084 1.67649342 0 1 C0 0.67 0 0.34 0 0 Z " fill="#F3F4F5" transform="translate(175,0)"/>
<path d="M0 0 C1.57692688 2.36539033 2.584921 4.31063075 3.6875 6.875 C5.87963326 11.35815974 8.79833534 13.48485039 13 16 C13.99 16.66 14.98 17.32 16 18 C10.72 18 5.44 18 0 18 C0 12.06 0 6.12 0 0 Z " fill="#F3F4F4" transform="translate(0,174)"/>
<path d="M0 0 C1.98 0 3.96 0 6 0 C6 0.99 6 1.98 6 3 C5.01 3 4.02 3 3 3 C3 3.99 3 4.98 3 6 C4.98 6 6.96 6 9 6 C9 5.01 9 4.02 9 3 C10.65 3 12.3 3 14 3 C12.68 3.33 11.36 3.66 10 4 C10 4.66 10 5.32 10 6 C10.66 6 11.32 6 12 6 C12 7.32 12 8.64 12 10 C11.01 10 10.02 10 9 10 C9 9.01 9 8.02 9 7 C7.02 7 5.04 7 3 7 C3 7.99 3 8.98 3 10 C0.69 10 -1.62 10 -4 10 C-4 9.01 -4 8.02 -4 7 C-4.99 7 -5.98 7 -7 7 C-6.67 6.01 -6.34 5.02 -6 4 C-6 4.66 -6 5.32 -6 6 C-5.34 6 -4.68 6 -4 6 C-4 5.01 -4 4.02 -4 3 C-2.68 3 -1.36 3 0 3 C0 2.01 0 1.02 0 0 Z " fill="#617283" transform="translate(104,123)"/>
<path d="M0 0 C5.28 0 10.56 0 16 0 C14.37760746 1.08159503 12.75019151 2.1564509 11.09765625 3.19140625 C5.52200856 6.94774471 3.13955078 10.66580361 1 17 C0.67 17 0.34 17 0 17 C0 11.39 0 5.78 0 0 Z " fill="#F4F6F6" transform="translate(0,0)"/>
<path d="M0 0 C0.99 0.33 1.98 0.66 3 1 C3 2.98 3 4.96 3 7 C1.68 7 0.36 7 -1 7 C-0.67 8.98 -0.34 10.96 0 13 C-1.010625 13.061875 -2.02125 13.12375 -3.0625 13.1875 C-7.03471824 13.7171291 -9.26573102 15.49472211 -12.35546875 17.921875 C-14.6094948 19.39957379 -16.37748425 19.39735087 -19 19 C-16.7108921 17.14009983 -14.41818497 15.3022525 -12.02734375 13.57421875 C-6.74811409 9.7554115 -2.69811837 6.07076633 0 0 Z " fill="#D3D9DA" transform="translate(113,93)"/>
<path d="M0 0 C0.99 0.33 1.98 0.66 3 1 C3 1.99 3 2.98 3 4 C3.66 4 4.32 4 5 4 C5.33 2.68 5.66 1.36 6 0 C6.99 0.33 7.98 0.66 9 1 C9 1.99 9 2.98 9 4 C8.01 4 7.02 4 6 4 C6 4.99 6 5.98 6 7 C6.99 7.33 7.98 7.66 9 8 C9 8.99 9 9.98 9 11 C7.68 11 6.36 11 5 11 C5 10.01 5 9.02 5 8 C4.34 8 3.68 8 3 8 C2.67 8.99 2.34 9.98 2 11 C1.01 11 0.02 11 -1 11 C-1 9.68 -1 8.36 -1 7 C-1.99 7 -2.98 7 -4 7 C-4 6.01 -4 5.02 -4 4 C-3.01 4 -2.02 4 -1 4 C-0.67 2.68 -0.34 1.36 0 0 Z " fill="#2E475F" transform="translate(98,41)"/>
<path d="M0 0 C3.3 0 6.6 0 10 0 C9.814375 0.7425 9.62875 1.485 9.4375 2.25 C8.77947289 5.22840916 8.77947289 5.22840916 10 9 C6.7 9 3.4 9 0 9 C0 8.01 0 7.02 0 6 C-0.99 6 -1.98 6 -3 6 C-3 5.01 -3 4.02 -3 3 C-2.01 3 -1.02 3 0 3 C0 2.01 0 1.02 0 0 Z " fill="#6F7F90" transform="translate(65,70)"/>
<path d="M0 0 C0.99 0 1.98 0 3 0 C3 1.32 3 2.64 3 4 C3.99 4 4.98 4 6 4 C6 4.66 6 5.32 6 6 C8.64 6 11.28 6 14 6 C14.33 5.34 14.66 4.68 15 4 C16.43854058 5.26965531 17.87579127 6.54077218 19.3125 7.8125 C20.11300781 8.52019531 20.91351563 9.22789063 21.73828125 9.95703125 C23.54983162 11.59337122 25.29681703 13.25272168 27 15 C24.525 14.505 24.525 14.505 22 14 C22 14.99 22 15.98 22 17 C21.01 17 20.02 17 19 17 C19.103125 16.2575 19.20625 15.515 19.3125 14.75 C19.26554502 11.84060746 19.26554502 11.84060746 16.9375 9.875 C13.3435837 7.58101087 10.92126074 7.40827143 6.6875 7.25 C4.80611328 7.16492188 4.80611328 7.16492188 2.88671875 7.078125 C1.93410156 7.05234375 0.98148437 7.0265625 0 7 C0 4.69 0 2.38 0 0 Z " fill="#D1D6D7" transform="translate(69,96)"/>
<path d="M0 0 C0.33 0 0.66 0 1 0 C1 3.3 1 6.6 1 10 C1.66 9.67 2.32 9.34 3 9 C3.65772428 5.97065509 3.65772428 5.97065509 4 3 C4.99 3 5.98 3 7 3 C7 5.31 7 7.62 7 10 C6.01 10 5.02 10 4 10 C4 10.99 4 11.98 4 13 C4.99 13 5.98 13 7 13 C7 15.31 7 17.62 7 20 C4.03 20 1.06 20 -2 20 C-2 19.67 -2 19.34 -2 19 C0.64 19 3.28 19 6 19 C5.67 18.01 5.34 17.02 5 16 C3.02 16.66 1.04 17.32 -1 18 C-0.505 9.09 -0.505 9.09 0 0 Z " fill="#A0AAB2" transform="translate(118,73)"/>
<path d="M0 0 C3.5 0.125 3.5 0.125 4.5 1.125 C4.64115161 3.79558851 4.54247107 6.44932238 4.5 9.125 C1.53 9.125 -1.44 9.125 -4.5 9.125 C-4.59765625 2.97265625 -4.59765625 2.97265625 -4.5 1.125 C-3.5 0.125 -3.5 0.125 0 0 Z " fill="#B0B8BE" transform="translate(117.5,109.875)"/>
<path d="M0 0 C2.31 0 4.62 0 7 0 C7.29035556 3.38102922 7.4386474 6.62822839 7 10 C4.625 12.625 4.625 12.625 2 14 C1.34 14 0.68 14 0 14 C-0.36923077 6.49230769 -0.36923077 6.49230769 1.5 4 C1.995 3.67 2.49 3.34 3 3 C2.01 3 1.02 3 0 3 C0 2.01 0 1.02 0 0 Z " fill="#246865" transform="translate(97,82)"/>
<path d="M0 0 C0.99 0 1.98 0 3 0 C3.33 3.3 3.66 6.6 4 10 C3.19175781 9.90460938 2.38351563 9.80921875 1.55078125 9.7109375 C0.48214844 9.60007812 -0.58648437 9.48921875 -1.6875 9.375 C-2.74324219 9.25898437 -3.79898438 9.14296875 -4.88671875 9.0234375 C-8.17408397 8.99868946 -10.03509232 9.67781144 -13 11 C-16.3125 11.125 -16.3125 11.125 -19 11 C-17.68 10.67 -16.36 10.34 -15 10 C-15 9.34 -15 8.68 -15 8 C-12.36 7.34 -9.72 6.68 -7 6 C-7 5.01 -7 4.02 -7 3 C-6.01 3 -5.02 3 -4 3 C-3.67 3.66 -3.34 4.32 -3 5 C-2.01 5.33 -1.02 5.66 0 6 C0 4.02 0 2.04 0 0 Z " fill="#D1D6D7" transform="translate(101,59)"/>
<path d="M0 0 C4.29 0 8.58 0 13 0 C13 0.99 13 1.98 13 3 C13.66 3 14.32 3 15 3 C15 4.32 15 5.64 15 7 C14.34 7 13.68 7 13 7 C13 7.66 13 8.32 13 9 C13.66 9.33 14.32 9.66 15 10 C14.01 10 13.02 10 12 10 C12 9.01 12 8.02 12 7 C11.01 7 10.02 7 9 7 C9 5.68 9 4.36 9 3 C8.01 3 7.02 3 6 3 C6 3.99 6 4.98 6 6 C5.01 6 4.02 6 3 6 C3 5.01 3 4.02 3 3 C2.01 3 1.02 3 0 3 C0 2.01 0 1.02 0 0 Z " fill="#818F9B" transform="translate(122,103)"/>
<path d="M0 0 C2.31 0 4.62 0 7 0 C7 3.96 7 7.92 7 12 C6.01 12 5.02 12 4 12 C4 9.36 4 6.72 4 4 C3.01 4 2.02 4 1 4 C1 5.98 1 7.96 1 10 C0.01 9.67 -0.98 9.34 -2 9 C-1.34 9 -0.68 9 0 9 C0 7.35 0 5.7 0 4 C-2.97 4 -5.94 4 -9 4 C-9 3.67 -9 3.34 -9 3 C-6.03 3 -3.06 3 0 3 C0 2.01 0 1.02 0 0 Z " fill="#707F8E" transform="translate(100,55)"/>
<path d="M0 0 C0.74886475 0.00523682 1.49772949 0.01047363 2.26928711 0.01586914 C3.07817383 0.0190918 3.88706055 0.02231445 4.72045898 0.02563477 C5.5705957 0.03401367 6.42073242 0.04239258 7.29663086 0.05102539 C8.15063477 0.05553711 9.00463867 0.06004883 9.88452148 0.06469727 C12.00108749 0.07652166 14.11761771 0.0944577 16.23413086 0.11352539 C12.82981139 2.3830717 11.06888884 2.47902488 7.04663086 2.73852539 C5.95995117 2.81329102 4.87327148 2.88805664 3.75366211 2.96508789 C2.50649414 3.03856445 2.50649414 3.03856445 1.23413086 3.11352539 C1.19674805 4.02875977 1.15936523 4.94399414 1.12084961 5.88696289 C1.05510742 7.07547852 0.98936523 8.26399414 0.92163086 9.48852539 C0.86362305 10.67188477 0.80561523 11.85524414 0.74584961 13.07446289 C0.57698242 14.07735352 0.40811523 15.08024414 0.23413086 16.11352539 C-0.75586914 16.77352539 -1.74586914 17.43352539 -2.76586914 18.11352539 C-2.79271226 15.30096258 -2.81263102 12.48865298 -2.82836914 9.67602539 C-2.83674805 8.87358398 -2.84512695 8.07114258 -2.85375977 7.24438477 C-2.86238344 5.20057318 -2.81815064 3.15668637 -2.76586914 1.11352539 C-1.76586914 0.11352539 -1.76586914 0.11352539 0 0 Z " fill="#2A435A" transform="translate(54.765869140625,112.886474609375)"/>
<path d="M0 0 C2.31 0 4.62 0 7 0 C7 0.99 7 1.98 7 3 C5.68 3 4.36 3 3 3 C3 4.65 3 6.3 3 8 C4.32 8 5.64 8 7 8 C7 9.98 7 11.96 7 14 C3.34683329 12.75023244 2.21934164 12.32901247 0 9 C-0.1953125 6.73828125 -0.1953125 6.73828125 -0.125 4.3125 C-0.10695313 3.50425781 -0.08890625 2.69601563 -0.0703125 1.86328125 C-0.04710938 1.24839844 -0.02390625 0.63351563 0 0 Z " fill="#9EC7D9" transform="translate(89,82)"/>
<path d="M0 0 C-0.5625 1.875 -0.5625 1.875 -2 4 C-7.09539984 6.03815994 -11.60264703 6.36592224 -17 6 C-17.66 5.34 -18.32 4.68 -19 4 C-19 8.95 -19 13.9 -19 19 C-19.33 19 -19.66 19 -20 19 C-20 13.72 -20 8.44 -20 3 C-17.29817708 2.8046875 -14.59635417 2.609375 -11.89453125 2.4140625 C-7.54590844 1.7919923 -4.48242657 0 0 0 Z " fill="#2B4A63" transform="translate(97,67)"/>
<path d="M0 0 C2.64 0 5.28 0 8 0 C8 2.64 8 5.28 8 8 C5.36 8 2.72 8 0 8 C0 5.36 0 2.72 0 0 Z " fill="#314A61" transform="translate(58,119)"/>
<path d="M0 0 C1.6396875 0.4640625 1.6396875 0.4640625 3.3125 0.9375 C8.4998085 2.25062477 13.67225316 2.60041899 19 3 C19 8.61 19 14.22 19 20 C18.67 20 18.34 20 18 20 C18 14.72 18 9.44 18 4 C16.02 4 14.04 4 12 4 C12 4.66 12 5.32 12 6 C7.428721 5.45144652 3.32564205 4.58255197 -1 3 C-0.67 2.01 -0.34 1.02 0 0 Z " fill="#3E7676" transform="translate(97,67)"/>
<path d="M0 0 C1.98 0 3.96 0 6 0 C6 3.3 6 6.6 6 10 C4.02 10 2.04 10 0 10 C0 6.7 0 3.4 0 0 Z " fill="#183450" transform="translate(59,49)"/>
<path d="M0 0 C1.98 0 3.96 0 6 0 C4.68 0.33 3.36 0.66 2 1 C2.53410863 8.35251669 3.13140916 15.67902003 4 23 C3.34 23.33 2.68 23.66 2 24 C-0.15758273 18.75044832 -0.24042211 14.19189716 -0.125 8.625 C-0.11597656 7.79355469 -0.10695313 6.96210937 -0.09765625 6.10546875 C-0.0742622 4.07018663 -0.03839725 2.03505436 0 0 Z " fill="#193C58" transform="translate(78,71)"/>
<path d="M0 0 C0.99 0 1.98 0 3 0 C3 0.99 3 1.98 3 3 C4.98 3 6.96 3 9 3 C9 4.32 9 5.64 9 7 C8.01 7 7.02 7 6 7 C6 7.99 6 8.98 6 10 C5.01 10 4.02 10 3 10 C3 9.01 3 8.02 3 7 C2.01 6.67 1.02 6.34 0 6 C0 4.02 0 2.04 0 0 Z " fill="#2E465D" transform="translate(78,123)"/>
<path d="M0 0 C0.99 0 1.98 0 3 0 C3 0.99 3 1.98 3 3 C6.3 3 9.6 3 13 3 C13.33 2.01 13.66 1.02 14 0 C14 1.98 14 3.96 14 6 C9.38 6 4.76 6 0 6 C0 4.02 0 2.04 0 0 Z " fill="#2B445C" transform="translate(62,86)"/>
<path d="M0 0 C1.18851563 0.00902344 2.37703125 0.01804687 3.6015625 0.02734375 C4.51679688 0.03894531 5.43203125 0.05054687 6.375 0.0625 C6.375 1.3825 6.375 2.7025 6.375 4.0625 C5.69953125 4.05089844 5.0240625 4.03929688 4.328125 4.02734375 C3.43609375 4.01832031 2.5440625 4.00929688 1.625 4 C0.74328125 3.98839844 -0.1384375 3.97679688 -1.046875 3.96484375 C-3.4356119 4.05532621 -5.37745874 4.25763725 -7.625 5.0625 C-7.955 5.7225 -8.285 6.3825 -8.625 7.0625 C-8.625 5.0825 -8.625 3.1025 -8.625 1.0625 C-5.74084117 -0.37957941 -3.20778472 -0.03144887 0 0 Z " fill="#678990" transform="translate(151.625,94.9375)"/>
<path d="M0 0 C0.99 0 1.98 0 3 0 C3 1.98 3 3.96 3 6 C4.98 6 6.96 6 9 6 C9 8.31 9 10.62 9 13 C8.01 13 7.02 13 6 13 C6 11.68 6 10.36 6 9 C5.01 9 4.02 9 3 9 C1.3125 7.875 1.3125 7.875 0 6 C-0.1875 2.8125 -0.1875 2.8125 0 0 Z " fill="#C9CFD3" transform="translate(85,113)"/>
<path d="M0 0 C2.31 0.66 4.62 1.32 7 2 C7 2.99 7 3.98 7 5 C6.34 5 5.68 5 5 5 C5 6.65 5 8.3 5 10 C4.34 10 3.68 10 3 10 C3 9.01 3 8.02 3 7 C2.01 7 1.02 7 0 7 C-0.38133299 5.0085944 -0.71325582 3.00720923 -1 1 C-0.67 0.67 -0.34 0.34 0 0 Z " fill="#8DA2AF" transform="translate(35,28)"/>
<path d="M0 0 C0.99 0.33 1.98 0.66 3 1 C3 2.98 3 4.96 3 7 C1.68 7 0.36 7 -1 7 C-1.33 7.99 -1.66 8.98 -2 10 C-5.0625 11.1875 -5.0625 11.1875 -8 12 C-7.59007813 11.46890625 -7.18015625 10.9378125 -6.7578125 10.390625 C-6.21898438 9.68421875 -5.68015625 8.9778125 -5.125 8.25 C-4.59132813 7.55390625 -4.05765625 6.8578125 -3.5078125 6.140625 C-2.10761086 4.15277397 -1.02144735 2.20156614 0 0 Z " fill="#BFCACD" transform="translate(113,93)"/>
<path d="M0 0 C0.33 0 0.66 0 1 0 C1 2.97 1 5.94 1 9 C1.99 9 2.98 9 4 9 C3.67 9.99 3.34 10.98 3 12 C3 11.34 3 10.68 3 10 C2.34 10 1.68 10 1 10 C0.67 10.99 0.34 11.98 0 13 C-1.98 13 -3.96 13 -6 13 C-6 11.68 -6 10.36 -6 9 C-4.02 9 -2.04 9 0 9 C0 6.03 0 3.06 0 0 Z " fill="#667787" transform="translate(58,97)"/>
<path d="M0 0 C1.32 0 2.64 0 4 0 C4 0.99 4 1.98 4 3 C3.01 3 2.02 3 1 3 C1 4.98 1 6.96 1 9 C-0.32 9 -1.64 9 -3 9 C-3 7.02 -3 5.04 -3 3 C-2.01 2.67 -1.02 2.34 0 2 C0 1.34 0 0.68 0 0 Z " fill="#788694" transform="translate(58,80)"/>
<path d="M0 0 C0.99 0.33 1.98 0.66 3 1 C3 1.99 3 2.98 3 4 C2.01 4 1.02 4 0 4 C0 4.99 0 5.98 0 7 C0.99 7.33 1.98 7.66 3 8 C3 8.99 3 9.98 3 11 C1.68 11 0.36 11 -1 11 C-1 10.01 -1 9.02 -1 8 C-1.66 8 -2.32 8 -3 8 C-3.33 8.66 -3.66 9.32 -4 10 C-4 9.01 -4 8.02 -4 7 C-3.01 7 -2.02 7 -1 7 C-1.020625 6.030625 -1.04125 5.06125 -1.0625 4.0625 C-1 1 -1 1 0 0 Z " fill="#6D7B8B" transform="translate(104,41)"/>
<path d="M0 0 C1.65 0 3.3 0 5 0 C5 1.32 5 2.64 5 4 C5.99 4 6.98 4 8 4 C8 4.99 8 5.98 8 7 C6.02 7 4.04 7 2 7 C2 5.68 2 4.36 2 3 C1.34 3 0.68 3 0 3 C0 2.01 0 1.02 0 0 Z " fill="#203A54" transform="translate(123,126)"/>
<path d="M0 0 C2.97 0 5.94 0 9 0 C9 0.99 9 1.98 9 3 C8.01 3 7.02 3 6 3 C6 3.99 6 4.98 6 6 C5.01 6 4.02 6 3 6 C3 5.01 3 4.02 3 3 C2.01 3 1.02 3 0 3 C0 2.01 0 1.02 0 0 Z " fill="#DEE0E1" transform="translate(122,103)"/>
<path d="M0 0 C0.99 0.33 1.98 0.66 3 1 C3 2.98 3 4.96 3 7 C0.69 7 -1.62 7 -4 7 C-4 6.01 -4 5.02 -4 4 C-3.01 4 -2.02 4 -1 4 C-0.67 2.68 -0.34 1.36 0 0 Z " fill="#364E63" transform="translate(82,41)"/>
<path d="M0 0 C1.98 0 3.96 0 6 0 C6 0.99 6 1.98 6 3 C5.01 3.33 4.02 3.66 3 4 C2.67 4.66 2.34 5.32 2 6 C0.35 6 -1.3 6 -3 6 C-3 5.01 -3 4.02 -3 3 C-2.01 3 -1.02 3 0 3 C0 2.01 0 1.02 0 0 Z " fill="#E1E3E3" transform="translate(104,123)"/>
<path d="M0 0 C2.31 0 4.62 0 7 0 C7 0.99 7 1.98 7 3 C6.01 3.33 5.02 3.66 4 4 C3.67 4.99 3.34 5.98 3 7 C2.01 7 1.02 7 0 7 C0 4.69 0 2.38 0 0 Z " fill="#A7B0B8" transform="translate(97,116)"/>
<path d="M0 0 C0.33 0 0.66 0 1 0 C1.06058594 0.85464844 1.12117188 1.70929688 1.18359375 2.58984375 C1.26738281 3.69457031 1.35117187 4.79929687 1.4375 5.9375 C1.51871094 7.03964844 1.59992187 8.14179687 1.68359375 9.27734375 C1.70418084 11.91109903 1.70418084 11.91109903 3 13 C5.01594582 13.23427778 7.038474 13.41336124 9.0625 13.5625 C10.16722656 13.64628906 11.27195312 13.73007813 12.41015625 13.81640625 C13.69212891 13.90728516 13.69212891 13.90728516 15 14 C15 14.33 15 14.66 15 15 C10.05 15 5.1 15 0 15 C0 10.05 0 5.1 0 0 Z " fill="#183450" transform="translate(53,117)"/>
<path d="M0 0 C0.99 0 1.98 0 3 0 C3 0.99 3 1.98 3 3 C3.99 3 4.98 3 6 3 C6 4.32 6 5.64 6 7 C4.33388095 7.042721 2.66617115 7.04063832 1 7 C0 6 0 6 -0.0625 2.9375 C-0.041875 1.968125 -0.02125 0.99875 0 0 Z " fill="#D0D4D7" transform="translate(128,86)"/>
<path d="M0 0 C0.33 0 0.66 0 1 0 C1 4.95 1 9.9 1 15 C1.99 15 2.98 15 4 15 C3.67 15.99 3.34 16.98 3 18 C2.01 18.33 1.02 18.66 0 19 C0 18.01 0 17.02 0 16 C-1.32 15.67 -2.64 15.34 -4 15 C-2.68 15 -1.36 15 0 15 C0 10.05 0 5.1 0 0 Z " fill="#649E8A" transform="translate(96,70)"/>
<path d="M0 0 C0.99 0 1.98 0 3 0 C3 2.31 3 4.62 3 7 C1.02 7 -0.96 7 -3 7 C-3 6.01 -3 5.02 -3 4 C-2.01 4 -1.02 4 0 4 C0 2.68 0 1.36 0 0 Z " fill="#294158" transform="translate(91,126)"/>
<path d="M0 0 C0 0.33 0 0.66 0 1 C-1.65 1.33 -3.3 1.66 -5 2 C-5.33 3.65 -5.66 5.3 -6 7 C-7.32 7 -8.64 7 -10 7 C-10.33 5.68 -10.66 4.36 -11 3 C-7.48550811 -0.37391222 -4.73940561 -0.27342725 0 0 Z " fill="#6A7C8C" transform="translate(113,106)"/>
<path d="M0 0 C0.99 0 1.98 0 3 0 C3 1.32 3 2.64 3 4 C3.99 4 4.98 4 6 4 C6 4.99 6 5.98 6 7 C4.02 7 2.04 7 0 7 C0 4.69 0 2.38 0 0 Z " fill="#254059" transform="translate(69,96)"/>
<path d="M0 0 C3.3 0 6.6 0 10 0 C10 0.99 10 1.98 10 3 C6.7 3 3.4 3 0 3 C0 2.01 0 1.02 0 0 Z " fill="#28425A" transform="translate(65,70)"/>
<path d="M0 0 C0.66 0.66 1.32 1.32 2 2 C4.57061311 2.64767793 4.57061311 2.64767793 7 3 C7 3.99 7 4.98 7 6 C4.36 6 1.72 6 -1 6 C-0.67 4.02 -0.34 2.04 0 0 Z " fill="#183550" transform="translate(130,120)"/>
<path d="M0 0 C0.33 0 0.66 0 1 0 C1 1.98 1 3.96 1 6 C1.99 6.33 2.98 6.66 4 7 C3.67 7.99 3.34 8.98 3 10 C2.01 9.67 1.02 9.34 0 9 C0 8.34 0 7.68 0 7 C-2.64 7 -5.28 7 -8 7 C-8 6.67 -8 6.34 -8 6 C-5.36 6 -2.72 6 0 6 C0 4.02 0 2.04 0 0 Z " fill="#748390" transform="translate(84,113)"/>
<path d="M0 0 C1.98 1.65 3.96 3.3 6 5 C5.01 5.66 4.02 6.32 3 7 C2.67 6.525625 2.34 6.05125 2 5.5625 C-1.09813267 3.14208385 -4.12026792 3.31801083 -8 3 C-8 2.67 -8 2.34 -8 2 C-5.36 2 -2.72 2 0 2 C0 1.34 0 0.68 0 0 Z " fill="#C4CACE" transform="translate(83,100)"/>
<path d="M0 0 C0.99 0 1.98 0 3 0 C3 1.98 3 3.96 3 6 C1.02 6 -0.96 6 -3 6 C-3 5.01 -3 4.02 -3 3 C-2.01 3 -1.02 3 0 3 C0 2.01 0 1.02 0 0 Z " fill="#264058" transform="translate(134,70)"/>
<path d="M0 0 C1.98 0 3.96 0 6 0 C6 1.98 6 3.96 6 6 C5.01 6 4.02 6 3 6 C3 5.01 3 4.02 3 3 C2.01 3 1.02 3 0 3 C0 2.01 0 1.02 0 0 Z " fill="#28415A" transform="translate(52,70)"/>
<path d="M0 0 C1.65 0 3.3 0 5 0 C5 3.3 5 6.6 5 10 C4.34 10 3.68 10 3 10 C2.87625 8.865625 2.7525 7.73125 2.625 6.5625 C2.41875 5.386875 2.2125 4.21125 2 3 C1.34 2.67 0.68 2.34 0 2 C0 1.34 0 0.68 0 0 Z " fill="#1B3650" transform="translate(101,56)"/>
<path d="M0 0 C1.32 1.32 2.64 2.64 4 4 C2.68 4.99 1.36 5.98 0 7 C-0.99 5.68 -1.98 4.36 -3 3 C-2.01 2.01 -1.02 1.02 0 0 Z " fill="#C8D2D8" transform="translate(181,178)"/>
<path d="M0 0 C1.32 0 2.64 0 4 0 C5.28317892 3.84953676 5.06643637 6.94738135 5 11 C4.34 10.67 3.68 10.34 3 10 C3.33 8.02 3.66 6.04 4 4 C2.68 4 1.36 4 0 4 C0 2.68 0 1.36 0 0 Z " fill="#4F92A7" transform="translate(92,86)"/>
<path d="M0 0 C4.62 0.66 9.24 1.32 14 2 C14 2.33 14 2.66 14 3 C9.38 3.33 4.76 3.66 0 4 C0 2.68 0 1.36 0 0 Z " fill="#568D7D" transform="translate(32,69)"/>
<path d="M0 0 C1.32 0 2.64 0 4 0 C3.44271087 3.34373475 2.64826111 6.03312999 1 9 C1 7.35 1 5.7 1 4 C0.34 4 -0.32 4 -1 4 C-0.67 2.68 -0.34 1.36 0 0 Z " fill="#69899F" transform="translate(111,25)"/>
<path d="M0 0 C0.66 0 1.32 0 2 0 C1.67 1.65 1.34 3.3 1 5 C-0.65 5.33 -2.3 5.66 -4 6 C-4.33 4.68 -4.66 3.36 -5 2 C-3.68 2 -2.36 2 -1 2 C-0.67 1.34 -0.34 0.68 0 0 Z " fill="#889EAC" transform="translate(64,19)"/>
<path d="M0 0 C1.98 0 3.96 0 6 0 C6 1.98 6 3.96 6 6 C5.01 6 4.02 6 3 6 C3 4.68 3 3.36 3 2 C2.01 2 1.02 2 0 2 C0 1.34 0 0.68 0 0 Z " fill="#E0E3E3" transform="translate(88,120)"/>
<path d="M0 0 C2.31 0.66 4.62 1.32 7 2 C6.01 2.33 5.02 2.66 4 3 C4 3.99 4 4.98 4 6 C2.68 6 1.36 6 0 6 C0 4.02 0 2.04 0 0 Z " fill="#768592" transform="translate(91,110)"/>
<path d="M0 0 C0.33 1.32 0.66 2.64 1 4 C1.66 4 2.32 4 3 4 C3 4.99 3 5.98 3 7 C2.01 7 1.02 7 0 7 C0 6.34 0 5.68 0 5 C-1.65 5 -3.3 5 -5 5 C-5 5.66 -5 6.32 -5 7 C-4.34 7.33 -3.68 7.66 -3 8 C-3.99 8 -4.98 8 -6 8 C-6 6.68 -6 5.36 -6 4 C-4.02 4 -2.04 4 0 4 C0 2.68 0 1.36 0 0 Z " fill="#7F8D9A" transform="translate(134,92)"/>
<path d="M0 0 C1.98 0 3.96 0 6 0 C6 1.32 6 2.64 6 4 C4.02 4 2.04 4 0 4 C0 2.68 0 1.36 0 0 Z " fill="#B8BFC4" transform="translate(119,96)"/>
<path d="M0 0 C1.32 0.33 2.64 0.66 4 1 C4 2.98 4 4.96 4 7 C2.68 6.67 1.36 6.34 0 6 C0 4.02 0 2.04 0 0 Z " fill="#8098A7" transform="translate(37,119)"/>
<path d="M0 0 C0 0.66 0 1.32 0 2 C-3.3 2 -6.6 2 -10 2 C-10 1.34 -10 0.68 -10 0 C-3.375 -1.125 -3.375 -1.125 0 0 Z " fill="#5A7887" transform="translate(153,118)"/>
<path d="M0 0 C0.99 0 1.98 0 3 0 C3 2.31 3 4.62 3 7 C1.68 6.67 0.36 6.34 -1 6 C-0.67 4.02 -0.34 2.04 0 0 Z " fill="#B9C2C7" transform="translate(122,76)"/>
<path d="M0 0 C0.99 0.33 1.98 0.66 3 1 C3 1.99 3 2.98 3 4 C0.36 4 -2.28 4 -5 4 C-5 3.34 -5 2.68 -5 2 C-3.35 2 -1.7 2 0 2 C0 1.34 0 0.68 0 0 Z " fill="#E9EBE9" transform="translate(80,98)"/>
<path d="M0 0 C1.98 0.495 1.98 0.495 4 1 C3.67 2.32 3.34 3.64 3 5 C1.68 4.67 0.36 4.34 -1 4 C-0.67 2.68 -0.34 1.36 0 0 Z " fill="#AABCC5" transform="translate(38,86)"/>
<path d="M0 0 C2.31 0 4.62 0 7 0 C7 0.99 7 1.98 7 3 C4.69 3 2.38 3 0 3 C0 2.01 0 1.02 0 0 Z " fill="#2D465D" transform="translate(65,83)"/>
<path d="M0 0 C2.475 0.495 2.475 0.495 5 1 C5 1.99 5 2.98 5 4 C3.68 4.33 2.36 4.66 1 5 C0.67 3.35 0.34 1.7 0 0 Z " fill="#407F79" transform="translate(69,25)"/>
<path d="M0 0 C0.33 0 0.66 0 1 0 C1 2.31 1 4.62 1 7 C3.31 7 5.62 7 8 7 C8 7.33 8 7.66 8 8 C3.545 8.495 3.545 8.495 -1 9 C-0.67 6.03 -0.34 3.06 0 0 Z " fill="#E2E5E5" transform="translate(57,120)"/>
<path d="M0 0 C0.66 0 1.32 0 2 0 C2 2.31 2 4.62 2 7 C1.01 7 0.02 7 -1 7 C-1.04254356 5.00045254 -1.04080783 2.99958364 -1 1 C-0.67 0.67 -0.34 0.34 0 0 Z " fill="#D5DBDC" transform="translate(126,119)"/>
<path d="M0 0 C0.99 1.485 0.99 1.485 2 3 C5.0745356 2.2236068 5.0745356 2.2236068 7 0 C7 1.65 7 3.3 7 5 C4.69 5 2.38 5 0 5 C0 3.35 0 1.7 0 0 Z " fill="#E8EAE8" transform="translate(114,114)"/>
<path d="M0 0 C1.98 0 3.96 0 6 0 C6.33 0.99 6.66 1.98 7 3 C4.69 3 2.38 3 0 3 C0 2.01 0 1.02 0 0 Z " fill="#C9CDD1" transform="translate(78,106)"/>
<path d="M0 0 C1.65 0 3.3 0 5 0 C3.68 0.33 2.36 0.66 1 1 C1 1.66 1 2.32 1 3 C1.66 3 2.32 3 3 3 C3 4.32 3 5.64 3 7 C2.01 7 1.02 7 0 7 C0 4.69 0 2.38 0 0 Z " fill="#768594" transform="translate(113,126)"/>
<path d="M0 0 C0.99 0 1.98 0 3 0 C3.33 1.65 3.66 3.3 4 5 C2.68 5.33 1.36 5.66 0 6 C0 4.02 0 2.04 0 0 Z " fill="#19344D" transform="translate(88,113)"/>
<path d="M0 0 C1.98 0 3.96 0 6 0 C6 0.99 6 1.98 6 3 C4.02 3 2.04 3 0 3 C0 2.01 0 1.02 0 0 Z " fill="#D6D9DB" transform="translate(125,113)"/>
<path d="M0 0 C1.65 0 3.3 0 5 0 C4.67 1.32 4.34 2.64 4 4 C2.68 3.67 1.36 3.34 0 3 C0 2.01 0 1.02 0 0 Z " fill="#769798" transform="translate(153,111)"/>
<path d="M0 0 C0.99 0 1.98 0 3 0 C3 1.98 3 3.96 3 6 C2.01 6 1.02 6 0 6 C0 4.02 0 2.04 0 0 Z " fill="#2E455A" transform="translate(55,83)"/>
<path d="M0 0 C0.33 0 0.66 0 1 0 C1 2.31 1 4.62 1 7 C-2.3 6.34 -5.6 5.68 -9 5 C-9 4.67 -9 4.34 -9 4 C-6.36 3.67 -3.72 3.34 -1 3 C-0.67 2.01 -0.34 1.02 0 0 Z " fill="#ECECEC" transform="translate(75,70)"/>
<path d="M0 0 C-0.66 1.32 -1.32 2.64 -2 4 C-2.99 4 -3.98 4 -5 4 C-5 3.34 -5 2.68 -5 2 C-5.66 1.67 -6.32 1.34 -7 1 C-4 0 -4 0 0 0 Z " fill="#2B4E67" transform="translate(97,67)"/>
<path d="M0 0 C1.65 0 3.3 0 5 0 C5 2 5 2 3.625 3.625 C2 5 2 5 0 5 C0 3.35 0 1.7 0 0 Z " fill="#E4E7E6" transform="translate(98,117)"/>
<path d="M0 0 C0.99 0 1.98 0 3 0 C3 0.99 3 1.98 3 3 C2.34 3 1.68 3 1 3 C1 3.66 1 4.32 1 5 C1.66 5.33 2.32 5.66 3 6 C2.01 6 1.02 6 0 6 C0 5.01 0 4.02 0 3 C-0.99 2.67 -1.98 2.34 -3 2 C-2.01 2 -1.02 2 0 2 C0 1.34 0 0.68 0 0 Z " fill="#6B7C8C" transform="translate(134,107)"/>
<path d="M0 0 C0.33 0.66 0.66 1.32 1 2 C1.66 2 2.32 2 3 2 C3 1.34 3 0.68 3 0 C3.99 0 4.98 0 6 0 C6 0.99 6 1.98 6 3 C5.34 3 4.68 3 4 3 C3.67 3.99 3.34 4.98 3 6 C3 5.01 3 4.02 3 3 C2.01 3 1.02 3 0 3 C0 2.01 0 1.02 0 0 Z " fill="#6D7D8C" transform="translate(131,80)"/>
<path d="M0 0 C2.31 0 4.62 0 7 0 C7 0.66 7 1.32 7 2 C4.69 2.66 2.38 3.32 0 4 C0 2.68 0 1.36 0 0 Z " fill="#728E96" transform="translate(143,80)"/>
<path d="M0 0 C1.32 0.33 2.64 0.66 4 1 C3.67 2.32 3.34 3.64 3 5 C2.01 4.67 1.02 4.34 0 4 C0 2.68 0 1.36 0 0 Z " fill="#448577" transform="translate(94,20)"/>
</svg>
